<?xml version="1.0" standalone="no"?>
<!DOCTYPE svg PUBLIC "-//W3C//DTD SVG 20010904//EN"
 "http://www.w3.org/TR/2001/REC-SVG-20010904/DTD/svg10.dtd">
<svg version="1.0" xmlns="http://www.w3.org/2000/svg"
 width="918.000000pt" height="1080.000000pt" viewBox="0 0 918.000000 1080.000000"
 preserveAspectRatio="xMidYMid meet">
<metadata>
Created by potrace 1.16, written by Peter Selinger 2001-2019
</metadata>
<g transform="translate(0.000000,1080.000000) scale(0.100000,-0.100000)"
fill="#FF8800" stroke="none">
<path d="M4390 9804 c-19 -2 -78 -9 -130 -15 -283 -31 -643 -130 -855 -234
-280 -138 -580 -384 -779 -639 -183 -234 -368 -654 -466 -1060 -67 -275 -94
-467 -135 -976 -23 -283 -75 -475 -195 -727 -97 -203 -192 -353 -479 -753
-247 -345 -367 -536 -475 -755 -240 -485 -368 -965 -383 -1430 -10 -328 25
-561 114 -739 39 -79 44 -84 132 -128 l64 -32 76 80 c52 55 109 134 177 245
56 90 139 225 185 299 l84 135 7 -40 c4 -22 24 -130 43 -240 99 -558 236 -927
480 -1295 57 -85 115 -178 129 -206 l25 -52 -82 -53 c-159 -104 -273 -194
-390 -308 -133 -130 -176 -199 -198 -320 -11 -64 -10 -75 7 -113 23 -53 116
-154 164 -178 60 -30 251 -87 348 -104 201 -34 600 -30 877 9 285 40 537 114
677 199 69 41 129 67 233 100 240 76 276 79 903 73 447 -3 566 -7 652 -21 167
-27 307 -72 472 -152 254 -125 475 -185 798 -218 325 -33 541 -29 787 14 234
42 340 95 434 221 39 52 39 53 39 145 0 81 -3 99 -29 150 -64 130 -210 271
-476 464 -93 68 -172 124 -174 126 -2 1 31 49 72 106 285 391 441 790 562
1438 45 236 40 220 64 220 15 0 48 -48 137 -195 133 -221 213 -331 323 -447
l77 -81 78 37 78 38 38 81 c78 167 100 319 100 682 0 200 -4 278 -21 390 -50
344 -134 611 -299 952 -149 308 -264 500 -555 923 -100 146 -191 281 -202 300
-10 19 -35 60 -55 90 -103 159 -236 447 -293 635 -64 213 -86 331 -115 630
-48 502 -110 813 -226 1133 -87 242 -232 514 -355 667 -33 40 -59 76 -59 80 0
3 -65 71 -145 150 -188 187 -337 299 -570 428 -224 124 -526 220 -815 257 -88
12 -419 21 -480 14z m-648 -1257 c50 -10 80 -24 120 -54 78 -59 146 -129 189
-196 67 -103 139 -359 160 -568 l12 -120 -38 -97 c-53 -135 -95 -198 -145
-218 -62 -25 -216 -217 -289 -361 -41 -82 -19 -247 44 -333 43 -58 202 -213
280 -272 162 -123 302 -201 402 -224 100 -23 186 -2 313 78 211 134 479 375
520 470 63 148 24 290 -145 523 -118 163 -232 303 -254 310 -24 7 -51 101 -51
176 1 139 44 353 100 495 72 181 128 257 247 334 100 66 196 84 405 78 145 -4
157 -6 230 -37 109 -46 277 -161 344 -234 123 -137 257 -374 323 -573 62 -187
90 -464 72 -712 -14 -186 -29 -268 -71 -387 -54 -153 -162 -367 -177 -351 -3
3 -49 -48 -103 -112 -64 -76 -95 -121 -89 -128 11 -14 -25 -49 -40 -39 -7 4
-11 -14 -11 -54 0 -64 -2 -62 66 -76 69 -13 340 -368 497 -650 212 -381 349
-860 397 -1382 23 -254 9 -765 -26 -946 -27 -142 -121 -436 -123 -389 -2 37
-26 -8 -100 -196 -69 -174 -94 -223 -149 -302 -219 -308 -542 -523 -1027 -683
-514 -169 -1269 -193 -1923 -61 -352 71 -753 243 -986 422 -158 122 -295 286
-281 339 5 21 -4 35 -55 89 -49 50 -73 89 -119 186 -143 302 -220 566 -252
867 -15 145 -6 596 15 776 58 487 192 920 407 1309 127 230 237 376 442 582
l130 132 -95 93 c-194 194 -342 478 -393 759 -26 140 -32 479 -11 635 35 260
83 410 195 609 162 285 372 446 656 502 82 16 283 11 387 -9z m879 -1203 c27
-20 56 -37 64 -38 8 -1 31 -17 50 -36 29 -28 35 -31 41 -17 5 15 8 15 31 0 14
-9 58 -55 98 -101 67 -78 73 -87 69 -123 -3 -28 0 -39 10 -39 7 0 23 -22 35
-49 12 -29 29 -52 41 -56 11 -3 20 -10 20 -14 0 -24 -36 -106 -55 -127 -26
-28 -111 -68 -130 -61 -7 3 -48 -6 -91 -20 -77 -24 -85 -25 -284 -19 -113 3
-215 6 -226 6 -43 1 -150 53 -213 103 l-63 51 6 60 c8 82 91 257 110 231 10
-14 17 -9 51 41 47 68 163 189 222 231 40 29 44 29 104 21 47 -6 73 -17 110
-44z m2295 -6474 c94 -24 191 -69 269 -124 34 -25 64 -43 67 -41 2 2 37 -29
78 -70 l74 -74 -30 -11 c-103 -40 -145 -42 -614 -36 -444 6 -531 11 -715 42
-159 27 -193 40 -215 84 l-20 38 47 16 c58 20 72 20 94 0 17 -15 24 -14 94 11
42 15 79 33 83 40 12 21 67 44 123 50 30 4 91 18 136 32 189 56 283 73 373 66
47 -3 117 -14 156 -23z m-4486 -11 c159 -12 284 -36 429 -83 58 -19 147 -42
196 -52 169 -32 210 -41 195 -46 -8 -3 -102 -30 -209 -59 -166 -46 -195 -57
-202 -76 l-9 -23 -550 0 c-498 0 -550 2 -550 16 0 11 5 14 16 10 56 -21 59
-20 77 38 14 42 15 60 7 76 -14 27 -9 34 50 67 27 15 47 30 45 34 -4 5 129 71
215 106 26 10 59 10 290 -8z"/>
<path d="M3380 7926 c-88 -18 -120 -43 -168 -126 -66 -116 -82 -168 -82 -266
0 -85 22 -221 42 -259 26 -49 83 -113 135 -152 53 -40 60 -43 122 -43 72 0
177 23 232 51 71 35 122 120 160 265 24 93 25 197 2 269 -39 124 -159 237
-278 262 -72 15 -93 15 -165 -1z m310 -286 l0 -80 -80 0 -80 0 0 80 0 80 80 0
80 0 0 -80z"/>
<path d="M5471 7920 c-91 -22 -136 -63 -197 -181 -25 -49 -28 -66 -32 -181 -4
-109 -1 -141 18 -220 27 -106 58 -148 164 -219 l61 -41 90 5 c50 2 113 12 142
21 68 21 141 88 184 168 l34 63 0 165 c0 164 -1 165 -30 220 -17 30 -59 86
-95 124 -59 61 -71 69 -115 77 -62 10 -179 10 -224 -1z m317 -260 l21 -60 -80
-40 c-56 -29 -81 -37 -84 -28 -5 17 -35 168 -35 179 0 5 36 9 79 9 l79 0 20
-60z"/>
<path d="M4838 5123 c-30 -3 -43 -13 -71 -51 -71 -97 -64 -75 -451 -1357 -189
-627 -247 -835 -276 -988 -6 -31 -16 -55 -21 -52 -5 4 -9 -36 -9 -98 0 -95 2
-105 23 -124 23 -22 114 -53 155 -53 52 0 159 86 196 159 9 16 45 134 82 263
36 128 92 319 124 423 74 240 328 1073 386 1265 55 185 82 299 99 425 l13 100
-41 42 c-39 39 -46 42 -107 46 -36 3 -82 3 -102 0z"/>
<path d="M3615 4658 c-65 -49 -609 -539 -737 -665 -120 -117 -148 -168 -148
-267 l0 -54 162 -144 c205 -181 258 -229 443 -404 215 -204 265 -243 336 -265
97 -30 128 -26 176 24 47 48 59 95 48 183 -8 69 -24 87 -189 222 -237 193
-465 393 -471 413 -4 11 -4 42 0 70 6 46 11 53 68 96 151 115 447 377 524 464
59 67 61 72 68 139 4 38 4 92 0 119 -6 48 -8 50 -52 65 -25 9 -80 18 -122 21
-68 5 -79 4 -106 -17z"/>
<path d="M5228 4663 c-25 -28 -47 -95 -53 -166 -7 -75 -23 -56 225 -277 318
-283 369 -338 428 -456 l21 -42 -292 -268 c-160 -147 -314 -292 -341 -321
l-49 -54 6 -66 c4 -36 14 -81 24 -101 19 -39 49 -51 159 -66 49 -6 53 -4 120
43 38 27 157 128 264 226 107 97 249 221 315 275 235 191 277 254 276 409 l0
75 -53 54 c-29 30 -87 78 -128 107 -110 78 -251 204 -465 415 -181 178 -193
188 -250 205 -33 10 -89 20 -125 22 -55 5 -68 2 -82 -14z"/>
</g>
</svg>
